<?xml version="1.0" encoding="iso-8859-1"?>
<!-- Uploaded to: SVG Repo, www.svgrepo.com, Generator: SVG Repo Mixer Tools -->
<svg version="1.1" id="Layer_1" xmlns="http://www.w3.org/2000/svg" xmlns:xlink="http://www.w3.org/1999/xlink" 
	 viewBox="0 0 512 512" xml:space="preserve">
<rect x="225.819" y="404.749" style="fill:#439EE8;" width="60.362" height="99.166"/>
<rect x="225.819" y="404.749" style="fill:#5293C4;" width="23.714" height="99.166"/>
<g>
	<polygon style="fill:#5CC4E0;" points="130.964,8.084 130.964,236.598 208.573,301.272 208.573,426.307 225.819,426.307 
		286.181,426.307 303.427,426.307 303.427,301.272 381.036,236.598 381.036,8.084 	"/>
	<polygon style="fill:#5CC4E0;" points="130.964,8.084 130.964,236.598 208.573,301.272 208.573,426.307 303.427,426.307 
		303.427,301.272 381.036,236.598 381.036,8.084 	"/>
</g>
<polygon style="fill:#439EE8;" points="161.145,236.598 161.145,8.084 130.964,8.084 130.964,236.598 208.573,301.272 
	208.573,426.307 238.754,426.307 238.754,301.272 "/>
<rect x="165.457" y="46.888" style="fill:#E0DDDF;" width="181.086" height="150.905"/>
<rect x="165.457" y="64.135" style="fill:#FFFFFF;" width="163.84" height="133.659"/>
<g>
	<circle style="fill:#FAEC8E;" cx="296.96" cy="243.065" r="19.402"/>
	<circle style="fill:#FAEC8E;" cx="215.04" cy="243.065" r="19.402"/>
</g>
<g>
	<path style="fill:#FF675C;" d="M316.362,73.297c-4.466,0-8.084,3.62-8.084,8.084v30.72h-35.571v-30.72
		c0-4.465-3.618-8.084-8.084-8.084s-8.084,3.62-8.084,8.084v81.92c0,4.465,3.618,8.084,8.084,8.084s8.084-3.62,8.084-8.084v-35.032
		h35.571v35.032c0,4.465,3.618,8.084,8.084,8.084s8.084-3.62,8.084-8.084v-81.92C324.446,76.916,320.828,73.297,316.362,73.297z"/>
	<path style="fill:#FF675C;" d="M238.754,73.297h-43.116c-4.466,0-8.084,3.62-8.084,8.084v38.804v43.116
		c0,4.465,3.618,8.084,8.084,8.084c4.466,0,8.084-3.62,8.084-8.084v-35.032h35.032c4.466,0,8.084-3.62,8.084-8.084V81.381
		C246.838,76.916,243.219,73.297,238.754,73.297z M230.669,112.101h-26.947V89.465h26.947V112.101z"/>
</g>
<path d="M381.036,0H130.964c-4.466,0-8.084,3.62-8.084,8.084v53.895c0,4.465,3.618,8.084,8.084,8.084s8.084-3.62,8.084-8.084V16.168
	h233.903v216.643L300.5,293.187h-89l-72.452-60.376V98.627c0-4.465-3.618-8.084-8.084-8.084s-8.084,3.62-8.084,8.084v137.971
	c0,2.399,1.065,4.675,2.908,6.211l74.7,62.249v121.249c0,4.465,3.618,8.084,8.084,8.084h9.162v69.524
	c0,4.465,3.618,8.084,8.084,8.084h60.362c4.466,0,8.084-3.62,8.084-8.084v-69.524h9.162c4.466,0,8.084-3.62,8.084-8.084V305.058
	l74.7-62.249c1.843-1.536,2.908-3.811,2.908-6.211V8.084C389.12,3.62,385.501,0,381.036,0z M278.097,495.832h-44.194v-61.44h44.194
	V495.832z M216.657,418.223V309.356h78.686v108.867H216.657z"/>
<path d="M354.627,197.794V46.888c0-4.465-3.618-8.084-8.084-8.084H165.457c-4.466,0-8.084,3.62-8.084,8.084v150.905
	c0,4.465,3.618,8.084,8.084,8.084h181.086C351.009,205.878,354.627,202.258,354.627,197.794z M338.459,189.709H173.541V54.973
	h164.918V189.709z"/>
<path d="M187.554,243.065c0,15.156,12.33,27.486,27.486,27.486s27.486-12.33,27.486-27.486s-12.33-27.486-27.486-27.486
	S187.554,227.909,187.554,243.065z M226.358,243.065c0,6.241-5.077,11.318-11.318,11.318c-6.241,0-11.318-5.077-11.318-11.318
	c0-6.241,5.077-11.318,11.318-11.318C221.281,231.747,226.358,236.824,226.358,243.065z"/>
<path d="M269.474,243.065c0,15.156,12.33,27.486,27.486,27.486s27.486-12.33,27.486-27.486s-12.33-27.486-27.486-27.486
	S269.474,227.909,269.474,243.065z M308.278,243.065c0,6.241-5.077,11.318-11.318,11.318s-11.318-5.077-11.318-11.318
	c0-6.241,5.077-11.318,11.318-11.318S308.278,236.824,308.278,243.065z"/>
</svg>