<?xml version="1.0" encoding="utf-8"?>

<!-- Uploaded to: SVG Repo, www.svgrepo.com, Generator: SVG Repo Mixer Tools -->
<svg 
	 xmlns="http://www.w3.org/2000/svg" xmlns:xlink="http://www.w3.org/1999/xlink"  width="800px" height="800px"
	 viewBox="0 0 24 24" enable-background="new 0 0 24 24" xml:space="preserve">
<metadata>
	<sfw  >
		<slices>

</slices>
		<sliceSourceBounds  width="505" height="984" bottomLeftOrigin="true" x="0" y="-552">

</sliceSourceBounds>
	</sfw>
</metadata>
<g>
	<g>
		<g>
			<path d="M5,21c-0.6,0-1-0.4-1-1v-3H1c-0.6,0-1-0.4-1-1s0.4-1,1-1h4c0.6,0,1,0.4,1,1v4C6,20.6,5.6,21,5,21z"/>
		</g>
	</g>
	<g>
		<g>
			<path d="M19,21c-0.6,0-1-0.4-1-1v-4c0-0.6,0.4-1,1-1h4c0.6,0,1,0.4,1,1s-0.4,1-1,1h-3v3C20,20.6,19.6,21,19,21z"/>
		</g>
	</g>
	<g>
		<g>
			<path d="M23,9h-4c-0.6,0-1-0.4-1-1V4c0-0.6,0.4-1,1-1s1,0.4,1,1v3h3c0.6,0,1,0.4,1,1S23.6,9,23,9z"/>
		</g>
	</g>
	<g>
		<g>
			<path d="M5,9H1C0.4,9,0,8.6,0,8s0.4-1,1-1h3V4c0-0.6,0.4-1,1-1s1,0.4,1,1v4C6,8.6,5.6,9,5,9z"/>
		</g>
	</g>
</g>
</svg>