<?xml version="1.0" encoding="utf-8"?>
<!-- Generator: Adobe Illustrator 23.0.3, SVG Export Plug-In . SVG Version: 6.00 Build 0)  -->
<svg version="1.1" id="Capa_1" xmlns="http://www.w3.org/2000/svg" xmlns:xlink="http://www.w3.org/1999/xlink" x="0px" y="0px"
	 viewBox="0 0 1200 1200" enable-background="new 0 0 1200 1200" xml:space="preserve">
<g>
	<path fill="#E1693F" d="M730.295,711.171H467.197l1.992-14.499l8.179-59.545l3.778-27.5h234.296l3.96,27.5l8.76,59.545
		L730.295,711.171z M704.678,534.868H491.417c-11.27-7.106-18.82-19.634-18.82-33.869v-0.043c0-22.027,18.022-40.049,40.048-40.049
		h14.018c-0.02-0.243-0.074-0.476-0.074-0.724v-81.677c0-4.569,3.527-8.314,7.987-8.752c0.427,1.217,1.557,2.109,2.916,2.109h25.834
		c1.389,0,2.532-0.935,2.934-2.195h7.391c0.402,1.26,1.545,2.195,2.934,2.195h25.834c1.389,0,2.532-0.935,2.934-2.195h56.337
		c0.494,0,0.964,0.087,1.442,0.147c0.472-0.079,0.949-0.147,1.442-0.147c4.861,0,8.838,3.977,8.838,8.838v81.677
		c0,0.248-0.053,0.481-0.074,0.724h14.017c22.027,0,40.049,18.022,40.049,40.049v0.043c0,15.279-8.705,26.767-21.371,33.511
		C705.581,534.751,705.299,534.868,704.678,534.868z M564.647,460.907c-0.02-0.243-0.074-0.476-0.074-0.724v-67.07h-20.307v67.07
		c0,0.248-0.053,0.481-0.074,0.724H564.647z M617.824,460.907c-0.02-0.243-0.074-0.476-0.074-0.724v-67.07h-35.501v67.07
		c0,0.248-0.053,0.481-0.074,0.724H617.824z M655.808,460.907c-0.02-0.243-0.074-0.476-0.074-0.724v-67.07h-20.307v67.07
		c0,0.248-0.053,0.481-0.074,0.724H655.808z M753.371,868.041l-10.379-70.556l-1.7-11.555H456.927l-1.588,11.555l-9.693,70.556
		l-3.579,26.053h315.137L753.371,868.041z M772.524,968.854h-4.322H431.798h-4.322c-49.815,0-90.573,40.758-90.573,90.573v0
		c0,49.815,40.758,90.573,90.573,90.573h345.048c49.815,0,90.573-40.758,90.573-90.573v0
		C863.097,1009.612,822.339,968.854,772.524,968.854z"/>
	<path fill="#E8E3DD" d="M715.442,609.628H481.146l10.072-73.313l0.199-1.447h213.261L715.442,609.628z M730.295,711.171H467.197
		l-10.27,74.759h284.365L730.295,711.171z M757.204,894.095H442.068l-10.27,74.759h336.404L757.204,894.095z M553.815,299.764
		h-6.643h-104.01l20.29-25.821h80.977c26.94,0,48.78-21.839,48.78-48.78s-21.84-48.78-48.78-48.78c-1.517,0-3.011,0.094-4.493,0.229
		l33.181-42.226l0.572-48.477c0.237-20.068,16.697-36.145,36.766-35.908c20.068,0.237,39.566,17.634,39.329,37.702h-18.864
		c-3.444,0-6.262,2.818-6.262,6.262c0,3.444,2.818,6.262,6.262,6.262h18.989c0.343,34.285,1.271,127.316,1.271,129.449
		c0,34.68-25.195,63.458-58.275,69.075c-2.182,0.37-4.397,0.637-6.643,0.801c-1.708,0.125-3.428,0.21-5.168,0.21H553.815z
		 M606.095,78.984c0,3.13,2.538,5.668,5.668,5.668s5.668-2.538,5.668-5.668c0-3.13-2.538-5.668-5.668-5.668
		S606.095,75.854,606.095,78.984z"/>
	<path fill="#D9933D" d="M534.576,369.755c-0.113-0.322-0.206-0.654-0.206-1.013c0-1.717,1.405-3.122,3.122-3.122h9.722
		c-0.005-0.07-0.041-0.129-0.041-0.2v-32.199c-2.777-1.241-4.719-4.016-4.719-7.254c0-3.238,1.942-6.012,4.719-7.254v-18.949h6.643
		v19.041c2.682,1.279,4.548,3.993,4.548,7.162c0,3.169-1.867,5.883-4.548,7.162v32.292c0,0.071-0.036,0.13-0.04,0.2h9.551
		c1.717,0,3.122,1.405,3.122,3.122c0,0.328-0.093,0.629-0.188,0.926c-0.402,1.26-1.545,2.195-2.934,2.195h-25.834
		C536.133,371.863,535.002,370.972,534.576,369.755z M586.264,318.713c-2.777,1.242-4.719,4.016-4.719,7.254
		c0,3.238,1.942,6.013,4.719,7.254v32.199c0,0.071,0.036,0.13,0.041,0.2h-9.721c-1.717,0-3.122,1.405-3.122,3.122
		c0,0.328,0.093,0.629,0.188,0.926c0.402,1.26,1.545,2.195,2.934,2.195h25.834c1.389,0,2.532-0.935,2.934-2.195
		c0.095-0.298,0.188-0.598,0.188-0.926c0-1.717-1.405-3.122-3.122-3.122h-9.551c0.005-0.07,0.041-0.129,0.041-0.2v-32.292
		c2.682-1.279,4.548-3.992,4.548-7.162c0-3.169-1.867-5.883-4.548-7.162v-20.052c-2.182,0.37-4.397,0.637-6.643,0.801V318.713z
		 M624.659,93.967c0,3.444,2.818,6.262,6.262,6.262h18.989h21.531c3.444,0,6.262-2.818,6.262-6.262c0-3.444-2.818-6.262-6.262-6.262
		h-21.656h-18.864C627.477,87.705,624.659,90.523,624.659,93.967z"/>
	<path fill="#424859" d="M544.43,273.943h-80.977h-15.024l55.075-75.325l0.005,0.01c7.928-12.2,21.16-20.616,36.428-22.014
		c1.482-0.136,2.976-0.229,4.493-0.229c26.94,0,48.78,21.839,48.78,48.78S571.37,273.943,544.43,273.943z M611.763,84.652
		c3.13,0,5.668-2.538,5.668-5.668c0-3.13-2.538-5.668-5.668-5.668s-5.668,2.537-5.668,5.668
		C606.095,82.114,608.633,84.652,611.763,84.652z"/>
</g>
</svg>
